<svg xmlns="http://www.w3.org/2000/svg" width="17" height="17" viewBox="0 0 17 17" fill="none">
    <g clip-path="url(#clip0_23_115)">
        <path d="M16.6914 16.3392H10.5767V11.5392C10.5767 10.4992 9.73541 9.65257 8.69141 9.65257C8.19153 9.6538 7.71251 9.85301 7.35917 10.2066C7.00583 10.5602 6.80695 11.0394 6.80607 11.5392V16.3392H0.691406V7.07257L8.69141 0.339233L16.6914 7.07257V16.3392ZM11.5941 15.3259H15.6741V7.53923L8.69141 1.6659L1.74207 7.53923L1.71541 15.3259H5.78874V11.5392C5.78874 9.93923 7.08874 8.6459 8.69141 8.6459C10.2941 8.6459 11.5941 9.9459 11.5941 11.5392V15.3259Z" fill="#03314B"/>
    </g>
    <defs>
        <clipPath id="clip0_23_115">
            <rect width="16" height="16" fill="white" transform="translate(0.691406 0.339233)"/>
        </clipPath>
    </defs>
</svg>