<svg xmlns="http://www.w3.org/2000/svg" width="17" height="17" viewBox="0 0 17 17" fill="none">
    <g clip-path="url(#clip0_23_92)">
        <path d="M10.7929 16.3394C10.609 16.3393 10.4292 16.2848 10.2762 16.1828C10.1232 16.0808 10.0038 15.9358 9.93291 15.7661L9.40158 14.4841C9.34567 14.3416 9.24748 14.2196 9.12021 14.1345C8.99293 14.0494 8.84266 14.0053 8.68958 14.0081C8.36758 14.0081 8.10025 14.1868 7.97625 14.4841L7.44558 15.7661C7.35158 15.9948 7.17225 16.1728 6.94225 16.2694C6.82962 16.3162 6.70887 16.3403 6.58691 16.3403C6.46496 16.3403 6.34421 16.3162 6.23158 16.2694L4.82025 15.6848C4.59294 15.5898 4.41244 15.4088 4.31814 15.1812C4.22383 14.9536 4.22339 14.698 4.31691 14.4701L4.84758 13.1888C4.90889 13.0486 4.92578 12.893 4.89598 12.7429C4.86618 12.5929 4.79113 12.4555 4.68091 12.3494C4.57467 12.2397 4.4375 12.1648 4.28768 12.1349C4.13786 12.1051 3.98249 12.1215 3.84225 12.1821L2.56091 12.7128C2.44819 12.7596 2.32732 12.7837 2.20525 12.7837C2.08317 12.7837 1.9623 12.7596 1.84958 12.7128C1.73648 12.6665 1.63372 12.5981 1.5473 12.5117C1.46089 12.4253 1.39254 12.3225 1.34625 12.2094L0.761581 10.7981C0.667735 10.5702 0.668088 10.3143 0.762562 10.0866C0.857035 9.85893 1.03792 9.67798 1.26558 9.58344L2.54691 9.05277C2.84425 8.92877 3.02291 8.66344 3.02291 8.3401C3.02291 8.0181 2.84425 7.75144 2.54691 7.62744L1.26491 7.09677C1.15184 7.0503 1.04909 6.98189 0.962582 6.8955C0.876079 6.80911 0.807538 6.70645 0.760914 6.59344C0.714061 6.48071 0.689941 6.35984 0.689941 6.23777C0.689941 6.1157 0.714061 5.99483 0.760914 5.8821L1.34558 4.47077C1.44025 4.2421 1.61891 4.0641 1.84891 3.96744C1.96164 3.92058 2.08251 3.89646 2.20458 3.89646C2.32665 3.89646 2.44752 3.92058 2.56025 3.96744L3.84158 4.49877C4.13891 4.6221 4.45358 4.55944 4.68091 4.3321C4.90758 4.10544 4.97025 3.79077 4.84825 3.49277L4.31825 2.21144C4.22436 1.98357 4.22462 1.72779 4.31896 1.50011C4.41331 1.27244 4.59404 1.09144 4.82158 0.996769L6.23291 0.412769C6.34571 0.36601 6.46662 0.341939 6.58873 0.341931C6.71084 0.341922 6.83175 0.365978 6.94455 0.412722C7.05736 0.459467 7.15985 0.527983 7.24616 0.614356C7.33247 0.700729 7.40091 0.803265 7.44758 0.916103L7.97825 2.19744C8.10225 2.49544 8.36758 2.67344 8.69091 2.67344C9.01291 2.67344 9.27958 2.49544 9.40358 2.19744L9.93425 0.916103C10.0289 0.687436 10.2076 0.508769 10.4376 0.412769C10.5503 0.365916 10.6712 0.341797 10.7932 0.341797C10.9153 0.341797 11.0362 0.365916 11.1489 0.412769L12.5616 0.995436C12.7902 1.0901 12.9689 1.26877 13.0649 1.49877C13.1118 1.61149 13.1359 1.73236 13.1359 1.85444C13.1359 1.97651 13.1118 2.09738 13.0649 2.2101L12.5342 3.49144C12.4102 3.78877 12.4729 4.10344 12.7009 4.33077C12.9276 4.55744 13.2422 4.62077 13.5396 4.49877L14.8209 3.96744C14.9337 3.92068 15.0546 3.89661 15.1767 3.8966C15.2988 3.89659 15.4197 3.92064 15.5326 3.96739C15.6454 4.01413 15.7478 4.08265 15.8342 4.16902C15.9205 4.2554 15.9889 4.35793 16.0356 4.47077L16.6202 5.8821C16.667 5.99494 16.691 6.11589 16.691 6.23803C16.691 6.36016 16.6668 6.4811 16.62 6.59391C16.5732 6.70672 16.5046 6.8092 16.4182 6.89548C16.3317 6.98177 16.2291 7.05017 16.1162 7.09677L14.8349 7.62744C14.6922 7.68342 14.57 7.78182 14.4849 7.90936C14.3998 8.0369 14.3558 8.18747 14.3589 8.34077C14.3589 8.6621 14.5376 8.92877 14.8349 9.05277L16.1162 9.58344C16.3449 9.6781 16.5236 9.85677 16.6196 10.0868C16.6664 10.1995 16.6906 10.3204 16.6906 10.4424C16.6906 10.5645 16.6664 10.6854 16.6196 10.7981L16.0356 12.2094C15.9406 12.4367 15.7596 12.6172 15.532 12.7115C15.3045 12.8058 15.0488 12.8063 14.8209 12.7128L13.5396 12.1821C13.3994 12.1208 13.2438 12.1039 13.0938 12.1337C12.9437 12.1635 12.8064 12.2386 12.7002 12.3488C12.5904 12.4549 12.5154 12.5921 12.4854 12.7419C12.4554 12.8917 12.4717 13.0471 12.5322 13.1874L13.0636 14.4688C13.1103 14.5816 13.1344 14.7025 13.1344 14.8246C13.1344 14.9467 13.1104 15.0676 13.0636 15.1804C13.0169 15.2932 12.9484 15.3957 12.862 15.482C12.7756 15.5683 12.6731 15.6368 12.5602 15.6834L11.1489 16.2674C11.0362 16.3148 10.9152 16.3392 10.7929 16.3394ZM8.69158 13.0928C9.38691 13.0928 9.98358 13.4928 10.2489 14.1328L10.7802 15.4148C10.7836 15.4228 10.7922 15.4254 10.7982 15.4228L12.2096 14.8381C12.2162 14.8348 12.2202 14.8261 12.2176 14.8201L11.6862 13.5381C11.5554 13.2306 11.5204 12.8908 11.5858 12.5631C11.6512 12.2354 11.814 11.9351 12.0529 11.7014C12.2866 11.4626 12.587 11.2999 12.9148 11.2349C13.2426 11.1698 13.5824 11.2053 13.8896 11.3368L15.1709 11.8674C15.1789 11.8708 15.1862 11.8674 15.1896 11.8601L15.7736 10.4488C15.7769 10.4421 15.7722 10.4321 15.7662 10.4308L14.4849 9.89944C14.1747 9.77473 13.9094 9.55928 13.7238 9.28129C13.5381 9.0033 13.4407 8.67572 13.4442 8.34144C13.4407 8.00734 13.5381 7.67997 13.7237 7.40212C13.9092 7.12427 14.1743 6.90887 14.4842 6.7841L15.7662 6.25277C15.7729 6.2501 15.7769 6.24077 15.7736 6.23477L15.1896 4.82344C15.1862 4.8161 15.1789 4.81277 15.1709 4.8161L13.8896 5.34677C13.5821 5.47762 13.2423 5.51262 12.9146 5.4472C12.5869 5.38178 12.2866 5.21898 12.0529 4.9801C11.8141 4.74641 11.6514 4.44597 11.5863 4.11821C11.5213 3.79044 11.5568 3.45066 11.6882 3.14344L12.2189 1.8621C12.2222 1.85544 12.2176 1.84544 12.2116 1.8441L10.8002 1.25944C10.7936 1.2561 10.7829 1.26077 10.7816 1.26677L10.2509 2.54877C10.1263 2.85919 9.91061 3.12465 9.63231 3.31026C9.35401 3.49587 9.02607 3.59296 8.69158 3.58877C8.35749 3.59228 8.03011 3.49489 7.75226 3.30934C7.47441 3.12379 7.25902 2.85871 7.13425 2.54877L6.60358 1.2661C6.60091 1.2601 6.59158 1.25544 6.58558 1.25877L5.17425 1.84344C5.16625 1.8461 5.16358 1.85544 5.16625 1.86144L5.69758 3.14277C5.82857 3.45033 5.86365 3.79028 5.79823 4.11811C5.73281 4.44594 5.56993 4.74638 5.33091 4.9801C5.09722 5.21896 4.79678 5.3816 4.46902 5.44668C4.14125 5.51176 3.80147 5.47623 3.49425 5.34477L2.21291 4.81344C2.20491 4.81077 2.19758 4.81344 2.19425 4.82144L1.61025 6.23277C1.60691 6.23877 1.61158 6.24944 1.61758 6.25077L2.89958 6.7821C3.20952 6.90687 3.4746 7.12227 3.66015 7.40012C3.8457 7.67797 3.94309 8.00534 3.93958 8.33944C3.94322 8.67364 3.8459 9.00116 3.66034 9.27915C3.47478 9.55713 3.20963 9.77263 2.89958 9.89744L1.61758 10.4281C1.61025 10.4314 1.60691 10.4401 1.61025 10.4468L2.19425 11.8581C2.19758 11.8641 2.20691 11.8688 2.21291 11.8654L3.49425 11.3348C3.80175 11.2037 4.14165 11.1685 4.46948 11.2338C4.79731 11.2991 5.09778 11.4619 5.33158 11.7008C5.82225 12.1921 5.96291 12.8968 5.69558 13.5374L5.16491 14.8194C5.16158 14.8268 5.16491 14.8348 5.17291 14.8374L6.58358 15.4221C6.59025 15.4248 6.60091 15.4201 6.60225 15.4141L7.13291 14.1328C7.25753 13.8225 7.47308 13.5571 7.75124 13.3715C8.02941 13.1859 8.3572 13.0887 8.69158 13.0928Z" fill="#03314B"/>
        <path d="M8.69069 11.5714C8.27069 11.5714 7.85269 11.4894 7.45335 11.3248C7.06075 11.1634 6.70406 10.9257 6.4039 10.6255C6.10375 10.3254 5.86609 9.9687 5.70469 9.5761C5.54152 9.18422 5.45752 8.76392 5.45752 8.33943C5.45752 7.91494 5.54152 7.49465 5.70469 7.10277C5.86609 6.71017 6.10375 6.35347 6.4039 6.05332C6.70406 5.75316 7.06075 5.51551 7.45335 5.3541C7.84523 5.19094 8.26553 5.10693 8.69002 5.10693C9.11451 5.10693 9.53481 5.19094 9.92669 5.3541C10.319 5.51584 10.6754 5.75362 10.9755 6.05374C11.2755 6.35386 11.5131 6.71038 11.6747 7.10277C11.8379 7.49465 11.9219 7.91494 11.9219 8.33943C11.9219 8.76392 11.8379 9.18422 11.6747 9.5761C11.5135 9.96865 11.276 10.3253 10.9759 10.6254C10.6759 10.9254 10.3192 11.1629 9.92669 11.3241C9.53497 11.4871 9.11494 11.5711 8.69069 11.5714ZM8.69069 6.02277C8.39002 6.02277 8.09069 6.0821 7.80402 6.19943C7.52264 6.31501 7.26702 6.48531 7.05198 6.70046C6.83694 6.91561 6.66678 7.17133 6.55135 7.45277C6.43437 7.73327 6.37413 8.03418 6.37413 8.3381C6.37413 8.64202 6.43437 8.94293 6.55135 9.22343C6.66715 9.50468 6.83753 9.76019 7.05266 9.9752C7.26778 10.1902 7.52338 10.3605 7.80469 10.4761C8.08519 10.5931 8.3861 10.6533 8.69002 10.6533C8.99394 10.6533 9.29485 10.5931 9.57535 10.4761C9.85666 10.3605 10.1123 10.1902 10.3274 9.9752C10.5425 9.76019 10.7129 9.50468 10.8287 9.22343C10.9458 8.94284 11.006 8.64181 11.006 8.33777C11.006 8.03372 10.9458 7.7327 10.8287 7.4521C10.7131 7.17072 10.5428 6.9151 10.3277 6.70006C10.1125 6.48503 9.85679 6.31486 9.57535 6.19943C9.29512 6.08314 8.99475 6.02312 8.69135 6.02277H8.69069Z" fill="#03314B"/>
    </g>
    <defs>
        <clipPath id="clip0_23_92">
            <rect width="16" height="16" fill="white" transform="translate(0.691406 0.339355)"/>
        </clipPath>
    </defs>
</svg>